<?xml version="1.0" encoding="iso-8859-1"?>
<!-- Uploaded to: SVG Repo, www.svgrepo.com, Generator: SVG Repo Mixer Tools -->
<svg height="800px" width="800px" version="1.1" id="Layer_1" xmlns="http://www.w3.org/2000/svg" xmlns:xlink="http://www.w3.org/1999/xlink" 
	 viewBox="0 0 504.446 504.446" xml:space="preserve">
<g transform="translate(1 1)">
	<path style="fill:#FFA800;" d="M402.725,297.387c0,0-33.574-1.679-58.754-25.18l-7.554-5.875
		c-15.948-11.751-26.02-31.056-26.02-51.2v-26.859H192.889v26.859c0,20.144-9.233,39.449-26.02,51.2l-7.554,5.875
		c-25.18,23.502-58.754,25.18-58.754,25.18v100.721c36.092,0,46.164,13.43,49.521,20.144c2.518,5.036,4.197,10.911,8.393,15.108
		c10.911,14.269,26.859,26.02,41.967,34.413c31.895,18.466,71.344,18.466,103.239,0c15.108-8.393,31.056-20.144,41.967-34.413
		c3.357-4.197,5.875-10.072,8.393-15.108c3.357-7.554,13.429-20.144,49.521-20.144V297.387H402.725z"/>
	<g>
		<path style="fill:#FFE100;" d="M376.705,297.387c0,0-29.377-1.679-52.039-25.18l-6.715-5.875
			c-14.269-11.751-22.662-31.056-22.662-51.2v-26.859H190.37v26.859c0,20.144-8.393,39.449-22.662,51.2l-7.554,5.875
			c-22.662,23.502-52.039,25.18-52.039,25.18v100.721c31.895,0,41.128,13.43,43.646,20.144c1.679,5.036,4.197,10.911,6.715,15.108
			c10.072,14.269,23.502,26.02,37.77,34.413c28.538,18.466,62.951,18.466,91.489,0c13.429-8.393,27.698-20.144,37.77-34.413
			c3.357-4.197,5.036-10.072,6.715-15.108c2.518-7.554,11.751-20.144,43.646-20.144V297.387H376.705z"/>
		<path style="fill:#FFE100;" d="M7.393,305.78v83.934c0,4.197,4.197,8.393,8.393,8.393h33.574V297.387H15.787
			C11.59,297.387,7.393,301.584,7.393,305.78"/>
	</g>
	<path style="fill:#FFA800;" d="M495.052,305.78v83.934c0,4.197-4.197,8.393-8.393,8.393h-33.574V297.387h33.574
		C490.856,297.387,495.052,301.584,495.052,305.78"/>
	<g>
		<path style="fill:#FFE100;" d="M469.872,305.78v83.934c0,4.197-1.679,8.393-3.357,8.393h-14.269V297.387h13.43
			C468.193,297.387,469.872,301.584,469.872,305.78"/>
		<path style="fill:#FFE100;" d="M50.2,280.6v135.134c0,4.197,3.357,7.554,7.554,7.554h35.252c4.197,0,7.554-3.357,7.554-7.554
			V279.761c0-4.197-3.357-7.554-7.554-7.554H58.593C53.557,272.207,50.2,276.403,50.2,280.6"/>
		<path style="fill:#FFE100;" d="M318.79,137.911H182.816c-4.197,0-7.554,3.357-7.554,7.554v35.252c0,4.197,3.357,7.554,7.554,7.554
			h135.134c4.197,0,7.554-3.357,7.554-7.554v-34.413C327.184,142.108,322.987,137.911,318.79,137.911"/>
		<path style="fill:#FFE100;" d="M453.085,280.6v135.134c0,4.197-3.357,7.554-7.554,7.554h-35.252c-4.197,0-7.554-3.357-7.554-7.554
			V279.761c0-4.197,3.357-7.554,7.554-7.554h34.413C448.888,272.207,453.085,276.403,453.085,280.6"/>
	</g>
	<path style="fill:#FFA800;" d="M124.902,37.19L124.902,37.19c0,9.233,7.554,16.787,16.787,16.787h218.229
		c9.233,0,16.787-7.554,16.787-16.787s-7.554-16.787-16.787-16.787H141.689C132.456,20.403,124.902,27.957,124.902,37.19"/>
	<path style="fill:#FFE100;" d="M124.902,37.19L124.902,37.19c0,9.233,7.554,16.787,16.787,16.787h193.049
		c9.233,0,16.787-7.554,16.787-16.787s-7.554-16.787-16.787-16.787H141.689C132.456,20.403,124.902,27.957,124.902,37.19"/>
	<path d="M58.593,406.502H15.787C6.554,406.502-1,398.948-1,389.715V305.78c0-9.233,7.554-16.787,16.787-16.787h41.967v117.508
		H58.593z M15.787,305.78v83.934h25.18V305.78H15.787z"/>
	<path d="M92.167,431.682H56.915c-8.393,0-15.948-6.715-15.948-15.948V280.6c0-9.233,7.554-16.787,16.787-16.787h34.413
		c9.233,0,15.948,7.554,15.948,15.948v135.134C108.954,424.128,101.4,431.682,92.167,431.682z M58.593,414.895h33.574V279.761
		L58.593,280.6C58.593,280.6,58.593,414.895,58.593,414.895z"/>
	<path d="M318.79,196.666H183.656c-9.233,0-15.948-7.554-15.948-15.948v-35.252c0-8.393,6.715-15.948,15.948-15.948H318.79
		c9.233,0,16.787,7.554,16.787,16.787v34.413C335.577,189.111,328.023,196.666,318.79,196.666z M184.495,146.305v34.413
		l134.295-0.839v-33.574H184.495z"/>
	<path d="M486.659,406.502h-41.967V288.993h41.967c9.233,0,16.787,7.554,16.787,16.787v83.934
		C503.446,398.948,495.052,406.502,486.659,406.502z M461.479,389.715h25.18V305.78h-25.18V389.715z"/>
	<path d="M445.531,431.682h-35.252c-9.233,0-15.948-7.554-15.948-15.948V279.761c0-9.233,7.554-15.948,15.948-15.948h34.413
		c9.233,0,16.787,7.554,16.787,16.787v135.134C461.479,424.967,453.925,431.682,445.531,431.682z M410.279,280.6l0.839,135.134
		l33.574-0.839V280.6H410.279z"/>
	<path d="M251.643,490.436c-19.305,0-38.61-5.036-55.397-14.269c-19.305-10.911-34.413-23.502-44.485-36.931
		c-4.197-5.036-6.715-10.911-9.233-17.626c-1.679-4.197-9.233-15.108-41.128-15.108h-8.393V289.833h7.554
		c0,0,31.056-1.679,53.718-22.662l8.393-6.715c14.269-10.072,22.662-26.859,22.662-44.485v-36.092h134.295v35.252
		c0,17.626,8.393,34.413,21.823,44.485l8.393,5.875c23.502,21.823,53.718,23.502,54.557,23.502l7.554,0.839v116.669h-8.393
		c-31.895,0-39.449,10.911-41.128,15.108c-2.518,5.875-5.036,11.751-9.233,17.626c-10.072,13.429-25.18,26.02-44.485,36.931
		C290.252,485.4,270.948,490.436,251.643,490.436z M108.954,389.715c33.574,1.679,45.325,16.787,48.682,25.18
		c1.679,5.036,4.197,10.072,6.715,13.43c9.233,11.751,22.662,22.662,39.449,32.734c28.538,15.948,66.308,15.948,94.846,0
		c17.626-10.072,31.056-20.984,39.449-32.734c2.518-3.357,5.036-8.393,6.715-13.43c3.357-9.233,15.108-23.502,48.682-25.18v-84.774
		c-12.59-1.679-36.092-8.393-56.236-26.02l-7.554-5.036c-18.466-13.43-29.377-35.252-29.377-57.915v-19.305H199.603v18.466
		c0,22.662-10.911,44.485-29.377,57.915l-7.554,5.875c-19.305,17.626-43.646,23.502-55.397,26.02v84.774H108.954z"/>
	<path d="M292.77,146.305h-83.934c-3.357,0-5.875-1.679-7.554-4.197s-1.679-5.875,0-8.393l33.574-50.361
		c2.518-2.518,5.036-4.197,7.554-4.197h16.787c2.518,0,5.036,1.679,6.715,3.357l33.574,50.361c1.679,2.518,1.679,5.875,0,8.393
		C297.807,143.787,296.128,146.305,292.77,146.305z M224.784,129.518h52.879L255,95.944h-7.554L224.784,129.518z"/>
	<path d="M250.803,95.944c-5.036,0-8.393-3.357-8.393-8.393V53.977c0-5.036,3.357-8.393,8.393-8.393s8.393,3.357,8.393,8.393v33.574
		C259.197,92.587,255.839,95.944,250.803,95.944z"/>
	<path d="M359.918,62.37H141.689c-14.269,0-25.18-10.911-25.18-25.18s10.911-25.18,25.18-25.18h218.229
		c14.269,0,25.18,10.911,25.18,25.18S374.187,62.37,359.918,62.37z M141.689,28.797c-5.036,0-8.393,3.357-8.393,8.393
		s3.357,8.393,8.393,8.393h218.229c5.036,0,8.393-3.357,8.393-8.393s-3.357-8.393-8.393-8.393H141.689z"/>
</g>
</svg>